<svg xmlns="http://www.w3.org/2000/svg" style="width:0; height:0; visibility:hidden;">
    <symbol id="icon_github" viewBox="0 0 90 90">
       <g> <path id="Github__x28_alt_x29_" d="M65.709,10.5c1.17,2.657,1.928,7.07,0.797,10.301c4.625,3.949,6.215,13.549,3.982,21.394
		C77.08,42.698,84.932,41.953,90,43.976c-4.738-0.609-11.209-1.804-17.32-1.388c-1.158,0.079-2.873-0.044-2.789,1.585
		c7.074,0.555,14.104,1.16,19.912,2.973c-5.761-0.941-12.754-2.375-19.912-2.574c-2.957,5.835-8.908,8.703-17.123,9.307
		c0.883,1.922,2.574,2.653,2.987,5.744c0.616,4.618-0.964,11.381,0.595,14.459c0.748,1.475,1.967,1.514,2.789,2.775
		c-2.012,2.381-7-0.268-7.568-2.775c-0.973-4.295,1.482-10.953-1.192-13.865c0.188,4.685-1.108,11.264,0.199,15.449
		c0.515,1.646,2.002,2.281,1.593,3.766c-9.352,0.949-5.443-12.104-6.972-19.81c-1.411,0.101-0.791,2.113-0.796,2.972
		c-0.04,7.524,1.54,17.844-6.57,16.838c-0.237-1.582,1.088-2.119,1.593-3.563c1.479-4.233-0.277-10.542,0.401-15.651
		c-3.095,2.334,0.325,10.48-1.593,14.657c-1.105,2.404-4.666,3.45-7.367,2.377c0.352-1.79,2.2-1.501,2.984-3.169
		c1.096-2.324,0.008-5.674,0.399-9.111c-5.729,1.144-10.173-0.166-12.348-3.764c-0.973-1.615-1.214-3.52-2.39-4.951
		c-1.17-1.432-3.04-1.625-3.582-3.563c7.095-1.708,7.367,7.302,13.739,7.524c1.954,0.071,2.97-0.563,4.778-0.988
		c0.506-2.272,1.589-3.967,3.186-5.153c-7.929-1.085-14.477-3.554-17.522-9.504c-7.208,0.354-13.804,1.317-19.913,2.771
		c5.545-2.014,12.384-2.736,19.715-2.973c-0.432-2.596-4.219-1.882-6.57-1.782C8.973,42.781,3.473,43.324,0,43.976
		c5.034-1.795,12.098-1.571,18.918-1.585c-2.086-6.54-1.363-16.929,3.186-20.798C20.815,18.344,21.215,13.03,22.9,10.5
		c5.079,0.228,8.159,2.443,11.35,4.557c3.957-1.125,8.118-1.685,13.54-1.387c2.28,0.126,4.651,1.151,6.369,0.989
		c1.685-0.158,3.542-2.049,5.178-2.771C61.468,10.947,63.271,10.588,65.709,10.5z"/> </g>                
    </symbol>
    <symbol id="icon_skype" viewBox="0 0 300 300">
       <g id="XMLID_818_"> <path id="XMLID_819_" d="M289.391,181.848c2.133-9.755,3.268-19.881,3.268-30.273c0-77.917-63.166-141.084-141.086-141.084
		c-8.226,0-16.286,0.711-24.128,2.064C114.836,4.611,99.918,0,83.916,0C38.728,0,2.097,36.635,2.097,81.816
		c0,15.104,4.109,29.24,11.246,41.385c-1.871,9.166-2.854,18.653-2.854,28.373c0,77.917,63.165,141.084,141.084,141.084
		c8.826,0,17.459-0.817,25.834-2.367c11.518,6.19,24.688,9.709,38.678,9.709c45.189,0,81.818-36.631,81.818-81.816
		C297.903,205.127,294.83,192.797,289.391,181.848z M223.932,218.998c-6.527,9.236-16.17,16.555-28.664,21.749
		c-12.373,5.143-27.205,7.751-44.088,7.751c-20.264,0-37.253-3.564-50.513-10.598c-9.479-5.121-17.296-12.056-23.229-20.613
		c-5.993-8.645-9.033-17.223-9.033-25.494c0-5.17,1.98-9.652,5.886-13.32c3.865-3.636,8.818-5.478,14.724-5.478
		c4.848,0,9.029,1.456,12.429,4.328c3.247,2.752,6.034,6.824,8.273,12.083c2.5,5.726,5.226,10.561,8.105,14.369
		c2.767,3.663,6.748,6.742,11.832,9.145c5.115,2.422,12.01,3.649,20.491,3.649c11.663,0,21.226-2.49,28.419-7.402
		c7.025-4.797,10.441-10.555,10.441-17.604c0-5.57-1.783-9.947-5.449-13.382c-3.84-3.591-8.904-6.386-15.055-8.303
		c-6.412-1.999-15.117-4.155-25.884-6.409c-14.586-3.124-26.985-6.83-36.86-11.019c-0.038-0.015-0.077-0.031-0.115-0.048
		c-10.117-4.303-18.271-10.27-24.236-17.736c-6.059-7.582-9.129-17.094-9.129-28.275c0-10.658,3.223-20.265,9.58-28.552
		c6.309-8.229,15.523-14.624,27.385-19.012c11.709-4.33,25.637-6.524,41.396-6.524c12.6,0,23.678,1.455,32.924,4.33
		c9.299,2.896,17.139,6.807,23.299,11.619c6.205,4.848,10.82,10.035,13.719,15.422c2.928,5.441,4.412,10.856,4.412,16.094
		c0,5.041-1.947,9.622-5.787,13.615c-3.863,4.016-8.738,6.055-14.49,6.055c-5.225,0-9.314-1.275-12.152-3.789
		c-2.641-2.334-5.379-5.973-8.42-11.209c-3.518-6.684-7.775-11.953-12.66-15.666c-4.74-3.606-12.666-5.437-23.555-5.437
		c-10.113,0-18.338,2.03-24.445,6.034c-5.885,3.858-8.744,8.282-8.744,13.523c0,3.215,0.92,5.901,2.813,8.213
		c2.005,2.449,4.833,4.6,8.408,6.388c3.708,1.864,7.529,3.345,11.357,4.402c3.921,1.088,10.5,2.7,19.522,4.784
		c9.506,2.041,18.359,4.289,26.418,6.695c1.619,0.483,3.219,0.972,4.771,1.468c9.395,3.007,17.514,6.716,24.135,11.022
		c6.758,4.401,12.109,10.053,15.906,16.8c3.807,6.771,5.736,15.132,5.736,24.844C233.803,199.135,230.481,209.727,223.932,218.998z"/> </g>                
    </symbol>
    <symbol id="icon_vk" viewBox="0 0 304.36 304.36">
       <g id="XMLID_1_"> <path id="XMLID_807_" style="fill-rule:evenodd;clip-rule:evenodd;" d="M261.945,175.576c10.096,9.857,20.752,19.131,29.807,29.982
		c4,4.822,7.787,9.798,10.684,15.394c4.105,7.955,0.387,16.709-6.746,17.184l-44.34-0.02c-11.436,0.949-20.559-3.655-28.23-11.474
		c-6.139-6.253-11.824-12.908-17.727-19.372c-2.42-2.642-4.953-5.128-7.979-7.093c-6.053-3.929-11.307-2.726-14.766,3.587
		c-3.523,6.421-4.322,13.531-4.668,20.687c-0.475,10.441-3.631,13.186-14.119,13.664c-22.414,1.057-43.686-2.334-63.447-13.641
		c-17.422-9.968-30.932-24.04-42.691-39.971C34.828,153.482,17.295,119.395,1.537,84.353C-2.01,76.458,0.584,72.22,9.295,72.07
		c14.465-0.281,28.928-0.261,43.41-0.02c5.879,0.086,9.771,3.458,12.041,9.012c7.826,19.243,17.402,37.551,29.422,54.521
		c3.201,4.518,6.465,9.036,11.113,12.216c5.142,3.521,9.057,2.354,11.476-3.374c1.535-3.632,2.207-7.544,2.553-11.434
		c1.146-13.383,1.297-26.743-0.713-40.079c-1.234-8.323-5.922-13.711-14.227-15.286c-4.238-0.803-3.607-2.38-1.555-4.799
		c3.564-4.172,6.916-6.769,13.598-6.769h50.111c7.889,1.557,9.641,5.101,10.721,13.039l0.043,55.663
		c-0.086,3.073,1.535,12.192,7.07,14.226c4.43,1.448,7.35-2.096,10.008-4.905c11.998-12.734,20.561-27.783,28.211-43.366
		c3.395-6.852,6.314-13.968,9.143-21.078c2.096-5.276,5.385-7.872,11.328-7.757l48.229,0.043c1.43,0,2.877,0.021,4.262,0.258
		c8.127,1.385,10.354,4.881,7.844,12.817c-3.955,12.451-11.65,22.827-19.174,33.251c-8.043,11.129-16.645,21.877-24.621,33.072
		C252.26,161.544,252.842,166.697,261.945,175.576L261.945,175.576z M261.945,175.576"/> </g>                
    </symbol></svg>